<?xml version="1.0" standalone="no"?>
<!DOCTYPE svg PUBLIC "-//W3C//DTD SVG 1.1//EN"
"http://www.w3.org/Graphics/SVG/1.1/DTD/svg11.dtd">

<svg width="349" height="644" view_box="0 0 349 644"
xmlns="http://www.w3.org/2000/svg"
xmlns:link="http://www.w3.org/1999/xlink">\n\n<desc>Généré par Mocodo 2.3.7 le Fri, 10 Jun 2022 08:10:52</desc>

<rect id="frame" x="0" y="0" width="349" height="644" fill="#ffffbf" stroke="none" stroke-width="0"/>

<!-- Association Write -->
<line x1="46" y1="542" x2="46" y2="297" stroke="#f46d43" stroke-width="2"/>
<text x="51.0" y="441" fill="#4575b4" font-family="Verdana" font-size="12">0,N</text>
<line x1="46" y1="77" x2="46" y2="297" stroke="#f46d43" stroke-width="2"/>
<text x="51.0" y="162" fill="#4575b4" font-family="Verdana" font-size="12">1,1</text>
<g id="association-Write">
	<path d="M 56 272 a 14 14 90 0 1 14 14 V 297 h -48 V 286 a 14 14 90 0 1 14 -14" fill="#fdae61" stroke="#fdae61" stroke-width="0"/>
	<path d="M 70 297.0 v 11 a 14 14 90 0 1 -14 14 H 36 a 14 14 90 0 1 -14 -14 V 297.0 H 48" fill="#fee090" stroke="#fee090" stroke-width="0"/>
	<rect x="22" y="272" width="48" height="50" fill="none" rx="14" stroke="#f46d43" stroke-width="2"/>
	<line x1="22" y1="297" x2="70" y2="297" stroke="#f46d43" stroke-width="1"/>
	<text x="29" y="289.7" fill="#000000" font-family="Verdana" font-size="12">Write</text>
</g>

<!-- Association Is in -->
<line x1="176" y1="297" x2="176" y2="542" stroke="#f46d43" stroke-width="2"/>
<text x="181.0" y="441" fill="#4575b4" font-family="Verdana" font-size="12">1,1</text>
<line x1="305" y1="542" x2="176" y2="542" stroke="#f46d43" stroke-width="2"/>
<text x="243" y="559.0" fill="#4575b4" font-family="Verdana" font-size="12">0,N</text>
<g id="association-Is in">
	<path d="M 183 517 a 14 14 90 0 1 14 14 V 542 h -42 V 531 a 14 14 90 0 1 14 -14" fill="#fdae61" stroke="#fdae61" stroke-width="0"/>
	<path d="M 197 542.0 v 11 a 14 14 90 0 1 -14 14 H 169 a 14 14 90 0 1 -14 -14 V 542.0 H 42" fill="#fee090" stroke="#fee090" stroke-width="0"/>
	<rect x="155" y="517" width="42" height="50" fill="none" rx="14" stroke="#f46d43" stroke-width="2"/>
	<line x1="155" y1="542" x2="197" y2="542" stroke="#f46d43" stroke-width="1"/>
	<text x="162" y="534.7" fill="#000000" font-family="Verdana" font-size="12">Is in</text>
</g>

<!-- Association Has -->
<line x1="176" y1="297" x2="176" y2="77" stroke="#f46d43" stroke-width="2"/>
<text x="181.0" y="162" fill="#4575b4" font-family="Verdana" font-size="12">0,N</text>
<line x1="46" y1="77" x2="176" y2="77" stroke="#f46d43" stroke-width="2"/>
<text x="88" y="94.0" fill="#4575b4" font-family="Verdana" font-size="12">1,1</text>
<g id="association-Has">
	<path d="M 181 52 a 14 14 90 0 1 14 14 V 77 h -38 V 66 a 14 14 90 0 1 14 -14" fill="#fdae61" stroke="#fdae61" stroke-width="0"/>
	<path d="M 195 77.0 v 11 a 14 14 90 0 1 -14 14 H 171 a 14 14 90 0 1 -14 -14 V 77.0 H 38" fill="#fee090" stroke="#fee090" stroke-width="0"/>
	<rect x="157" y="52" width="38" height="50" fill="none" rx="14" stroke="#f46d43" stroke-width="2"/>
	<line x1="157" y1="77" x2="195" y2="77" stroke="#f46d43" stroke-width="1"/>
	<text x="164" y="69.7" fill="#000000" font-family="Verdana" font-size="12">Has</text>
</g>

<!-- Association Have -->
<line x1="305" y1="77" x2="305" y2="297" stroke="#f46d43" stroke-width="2"/>
<text x="310.0" y="128" fill="#4575b4" font-family="Verdana" font-size="12">0,N</text>
<line x1="176" y1="297" x2="305" y2="297" stroke="#f46d43" stroke-width="2"/>
<text x="255" y="314.0" fill="#4575b4" font-family="Verdana" font-size="12">0,N</text>
<g id="association-Have">
	<path d="M 314 272 a 14 14 90 0 1 14 14 V 297 h -46 V 286 a 14 14 90 0 1 14 -14" fill="#fdae61" stroke="#fdae61" stroke-width="0"/>
	<path d="M 328 297.0 v 11 a 14 14 90 0 1 -14 14 H 296 a 14 14 90 0 1 -14 -14 V 297.0 H 46" fill="#fee090" stroke="#fee090" stroke-width="0"/>
	<rect x="282" y="272" width="46" height="50" fill="none" rx="14" stroke="#f46d43" stroke-width="2"/>
	<line x1="282" y1="297" x2="328" y2="297" stroke="#f46d43" stroke-width="1"/>
	<text x="289" y="289.7" fill="#000000" font-family="Verdana" font-size="12">Have</text>
</g>

<!-- Entity COMMENT -->
<g id="entity-COMMENT">
	<g id="frame-COMMENT">
		<rect x="9" y="9" width="74" height="25" fill="#abd9e9" stroke="#abd9e9" stroke-width="0"/>
		<rect x="9" y="34.0" width="74" height="111" fill="#e0f3f8" stroke="#e0f3f8" stroke-width="0"/>
		<rect x="9" y="9" width="74" height="136" fill="none" stroke="#74add1" stroke-width="2"/>
		<line x1="9" y1="34" x2="83" y2="34" stroke="#74add1" stroke-width="1"/>
	</g>
	<text x="14" y="26.7" fill="#000000" font-family="Verdana" font-size="12">COMMENT</text>
	<text x="14" y="51.7" fill="#000000" font-family="Verdana" font-size="12">code</text>
	<line x1="14" y1="54" x2="43" y2="54" stroke="#000000" stroke-width="1"/>
	<text x="14" y="68.7" fill="#000000" font-family="Verdana" font-size="12">username</text>
	<text x="14" y="85.8" fill="#000000" font-family="Verdana" font-size="12">date</text>
	<text x="14" y="102.8" fill="#000000" font-family="Verdana" font-size="12">body</text>
	<text x="14" y="119.8" fill="#000000" font-family="Verdana" font-size="12">rating</text>
	<text x="14" y="136.8" fill="#000000" font-family="Verdana" font-size="12">picture</text>
</g>

<!-- Entity TAG -->
<g id="entity-TAG">
	<g id="frame-TAG">
		<rect x="282" y="43" width="46" height="25" fill="#abd9e9" stroke="#abd9e9" stroke-width="0"/>
		<rect x="282" y="68.0" width="46" height="43" fill="#e0f3f8" stroke="#e0f3f8" stroke-width="0"/>
		<rect x="282" y="43" width="46" height="68" fill="none" stroke="#74add1" stroke-width="2"/>
		<line x1="282" y1="68" x2="328" y2="68" stroke="#74add1" stroke-width="1"/>
	</g>
	<text x="292" y="60.7" fill="#000000" font-family="Verdana" font-size="12">TAG</text>
	<text x="287" y="85.8" fill="#000000" font-family="Verdana" font-size="12">code</text>
	<line x1="287" y1="88" x2="316" y2="88" stroke="#000000" stroke-width="1"/>
	<text x="287" y="102.8" fill="#000000" font-family="Verdana" font-size="12">name</text>
</g>

<!-- Entity ESTABLISHMENT -->
<g id="entity-ESTABLISHMENT">
	<g id="frame-ESTABLISHMENT">
		<rect x="102" y="170" width="148" height="25" fill="#abd9e9" stroke="#abd9e9" stroke-width="0"/>
		<rect x="102" y="195.0" width="148" height="229" fill="#e0f3f8" stroke="#e0f3f8" stroke-width="0"/>
		<rect x="102" y="170" width="148" height="254" fill="none" stroke="#74add1" stroke-width="2"/>
		<line x1="102" y1="195" x2="250" y2="195" stroke="#74add1" stroke-width="1"/>
	</g>
	<text x="124" y="187.7" fill="#000000" font-family="Verdana" font-size="12">ESTABLISHMENT</text>
	<text x="107" y="212.7" fill="#000000" font-family="Verdana" font-size="12">code</text>
	<line x1="107" y1="215" x2="136" y2="215" stroke="#000000" stroke-width="1"/>
	<text x="107" y="229.7" fill="#000000" font-family="Verdana" font-size="12">name</text>
	<text x="107" y="246.7" fill="#000000" font-family="Verdana" font-size="12">type</text>
	<text x="107" y="263.7" fill="#000000" font-family="Verdana" font-size="12">description</text>
	<text x="107" y="280.7" fill="#000000" font-family="Verdana" font-size="12">address</text>
	<text x="107" y="297.8" fill="#000000" font-family="Verdana" font-size="12">price</text>
	<text x="107" y="314.8" fill="#000000" font-family="Verdana" font-size="12">opening_days</text>
	<text x="107" y="331.8" fill="#000000" font-family="Verdana" font-size="12">noon_opening_time</text>
	<text x="107" y="348.8" fill="#000000" font-family="Verdana" font-size="12">evening_opening_time</text>
	<text x="107" y="365.8" fill="#000000" font-family="Verdana" font-size="12">website</text>
	<text x="107" y="382.8" fill="#000000" font-family="Verdana" font-size="12">phone</text>
	<text x="107" y="399.8" fill="#000000" font-family="Verdana" font-size="12">rating</text>
	<text x="107" y="416.8" fill="#000000" font-family="Verdana" font-size="12">slug</text>
</g>

<!-- Entity USER -->
<g id="entity-USER">
	<g id="frame-USER">
		<rect x="9" y="449" width="74" height="25" fill="#abd9e9" stroke="#abd9e9" stroke-width="0"/>
		<rect x="9" y="474.0" width="74" height="161" fill="#e0f3f8" stroke="#e0f3f8" stroke-width="0"/>
		<rect x="9" y="449" width="74" height="186" fill="none" stroke="#74add1" stroke-width="2"/>
		<line x1="9" y1="474" x2="83" y2="474" stroke="#74add1" stroke-width="1"/>
	</g>
	<text x="29" y="466.7" fill="#000000" font-family="Verdana" font-size="12">USER</text>
	<text x="14" y="491.7" fill="#000000" font-family="Verdana" font-size="12">code</text>
	<line x1="14" y1="494" x2="43" y2="494" stroke="#000000" stroke-width="1"/>
	<text x="14" y="508.7" fill="#000000" font-family="Verdana" font-size="12">email</text>
	<text x="14" y="525.7" fill="#000000" font-family="Verdana" font-size="12">password</text>
	<text x="14" y="542.8" fill="#000000" font-family="Verdana" font-size="12">username</text>
	<text x="14" y="559.8" fill="#000000" font-family="Verdana" font-size="12">lastname</text>
	<text x="14" y="576.8" fill="#000000" font-family="Verdana" font-size="12">firstname</text>
	<text x="14" y="593.8" fill="#000000" font-family="Verdana" font-size="12">birthdate</text>
	<text x="14" y="610.8" fill="#000000" font-family="Verdana" font-size="12">nationality</text>
	<text x="14" y="627.8" fill="#000000" font-family="Verdana" font-size="12">role</text>
</g>

<!-- Entity DISTRICT -->
<g id="entity-DISTRICT">
	<g id="frame-DISTRICT">
		<rect x="270" y="508" width="70" height="25" fill="#abd9e9" stroke="#abd9e9" stroke-width="0"/>
		<rect x="270" y="533.0" width="70" height="43" fill="#e0f3f8" stroke="#e0f3f8" stroke-width="0"/>
		<rect x="270" y="508" width="70" height="68" fill="none" stroke="#74add1" stroke-width="2"/>
		<line x1="270" y1="533" x2="340" y2="533" stroke="#74add1" stroke-width="1"/>
	</g>
	<text x="275" y="525.7" fill="#000000" font-family="Verdana" font-size="12">DISTRICT</text>
	<text x="275" y="550.8" fill="#000000" font-family="Verdana" font-size="12">code</text>
	<line x1="275" y1="553" x2="304" y2="553" stroke="#000000" stroke-width="1"/>
	<text x="275" y="567.8" fill="#000000" font-family="Verdana" font-size="12">name</text>
</g>
</svg>